<svg width="270" height="80" viewBox="0 0 270 80" fill="none" xmlns="http://www.w3.org/2000/svg">
<g clip-path="url(#clip0_77_184)">
<path d="M0.84 35V0.919998H23.64V6.344H3.672L7.08 2.84V18.488L3.672 15.656H22.776V21.032H3.672L7.08 18.2V35H0.84ZM40.7092 35.768C37.3493 35.768 34.4533 35.064 32.0212 33.656C29.5892 32.216 27.7172 30.168 26.4052 27.512C25.1252 24.856 24.4852 21.688 24.4852 18.008C24.4852 14.328 25.1252 11.16 26.4052 8.504C27.7172 5.816 29.5892 3.752 32.0212 2.312C34.4533 0.871999 37.3493 0.151999 40.7092 0.151999C44.1333 0.151999 47.0453 0.871999 49.4453 2.312C51.8773 3.752 53.7333 5.816 55.0133 8.504C56.3253 11.16 56.9813 14.328 56.9813 18.008C56.9813 21.688 56.3253 24.856 55.0133 27.512C53.7333 30.168 51.8773 32.216 49.4453 33.656C47.0453 35.064 44.1333 35.768 40.7092 35.768ZM40.7092 30.344C42.7892 30.344 44.5493 29.864 45.9893 28.904C47.4612 27.912 48.5813 26.504 49.3493 24.68C50.1493 22.824 50.5493 20.6 50.5493 18.008C50.5493 15.416 50.1493 13.192 49.3493 11.336C48.5813 9.48 47.4612 8.056 45.9893 7.064C44.5493 6.072 42.7892 5.576 40.7092 5.576C38.6933 5.576 36.9493 6.072 35.4773 7.064C34.0052 8.056 32.8692 9.48 32.0692 11.336C31.3012 13.192 30.9172 15.416 30.9172 18.008C30.9172 20.6 31.3012 22.824 32.0692 24.68C32.8692 26.504 34.0052 27.912 35.4773 28.904C36.9493 29.864 38.6933 30.344 40.7092 30.344ZM58.7606 35V0.919998H73.0166C75.4806 0.919998 77.6086 1.336 79.4006 2.168C81.1926 3 82.5846 4.184 83.5766 5.72C84.5686 7.256 85.0646 9.064 85.0646 11.144C85.0646 12.712 84.7286 14.104 84.0566 15.32C83.3846 16.536 82.4726 17.512 81.3206 18.248C80.2006 18.984 78.9526 19.432 77.5766 19.592L77.3366 19.112C79.5446 19.112 81.2406 19.608 82.4246 20.6C83.6406 21.592 84.3286 23.112 84.4886 25.16L85.3526 35H79.0166L78.2966 26.072C78.2006 24.728 77.7686 23.736 77.0006 23.096C76.2326 22.456 74.9526 22.136 73.1606 22.136H65.0006V35H58.7606ZM65.0006 16.664H72.6326C74.5206 16.664 75.9926 16.216 77.0486 15.32C78.1046 14.424 78.6326 13.16 78.6326 11.528C78.6326 9.864 78.0886 8.584 77.0006 7.688C75.9446 6.792 74.3926 6.344 72.3446 6.344H65.0006V16.664ZM88.4944 35V0.919998H96.8944L106.302 27.32L115.71 0.919998H124.11V35H117.87V11.48L109.278 34.952H103.326L94.7344 11.48V35H88.4944ZM125.05 35L137.338 0.919998H144.97L157.258 35H150.73L147.898 26.936H134.41L131.578 35H125.05ZM136.234 21.608H146.074L141.178 7.208L136.234 21.608Z" fill="black"/>
<path d="M19.856 77.768C16.752 77.768 14.016 77.064 11.648 75.656C9.28 74.216 7.424 72.184 6.08 69.56C4.736 66.904 4.064 63.72 4.064 60.008C4.064 56.36 4.72 53.208 6.032 50.552C7.344 47.864 9.184 45.8 11.552 44.36C13.92 42.888 16.704 42.152 19.904 42.152C24.256 42.152 27.632 43.24 30.032 45.416C32.432 47.56 34 50.568 34.736 54.44L28.208 54.776C27.792 52.536 26.896 50.776 25.52 49.496C24.144 48.216 22.272 47.576 19.904 47.576C17.984 47.576 16.32 48.088 14.912 49.112C13.504 50.136 12.416 51.576 11.648 53.432C10.88 55.288 10.496 57.48 10.496 60.008C10.496 62.568 10.88 64.776 11.648 66.632C12.448 68.456 13.552 69.864 14.96 70.856C16.368 71.848 18 72.344 19.856 72.344C22.384 72.344 24.336 71.656 25.712 70.28C27.12 68.872 28.016 66.952 28.4 64.52L34.928 64.856C34.48 67.512 33.616 69.816 32.336 71.768C31.056 73.688 29.36 75.176 27.248 76.232C25.168 77.256 22.704 77.768 19.856 77.768ZM36.8862 77V42.92H51.1422C53.6063 42.92 55.7343 43.336 57.5263 44.168C59.3183 45 60.7103 46.184 61.7022 47.72C62.6943 49.256 63.1903 51.064 63.1903 53.144C63.1903 54.712 62.8543 56.104 62.1823 57.32C61.5103 58.536 60.5983 59.512 59.4462 60.248C58.3263 60.984 57.0783 61.432 55.7023 61.592L55.4622 61.112C57.6702 61.112 59.3663 61.608 60.5503 62.6C61.7662 63.592 62.4543 65.112 62.6143 67.16L63.4782 77H57.1423L56.4223 68.072C56.3263 66.728 55.8943 65.736 55.1262 65.096C54.3583 64.456 53.0783 64.136 51.2863 64.136H43.1262V77H36.8862ZM43.1262 58.664H50.7583C52.6463 58.664 54.1183 58.216 55.1743 57.32C56.2303 56.424 56.7583 55.16 56.7583 53.528C56.7583 51.864 56.2143 50.584 55.1262 49.688C54.0703 48.792 52.5182 48.344 50.4702 48.344H43.1262V58.664ZM66.62 77V42.92H89.564V48.344H72.86V57.224H88.988V62.6H72.86V71.576H89.948V77H66.62ZM89.8632 77L102.151 42.92H109.783L122.071 77H115.543L112.711 68.936H99.2232L96.3912 77H89.8632ZM101.047 63.608H110.887L105.991 49.208L101.047 63.608ZM125.878 77V48.344H115.51V42.92H142.438V48.344H132.118V77H125.878ZM142.415 77V42.92H148.655V77H142.415ZM166.675 77.768C163.315 77.768 160.419 77.064 157.987 75.656C155.555 74.216 153.683 72.168 152.371 69.512C151.091 66.856 150.451 63.688 150.451 60.008C150.451 56.328 151.091 53.16 152.371 50.504C153.683 47.816 155.555 45.752 157.987 44.312C160.419 42.872 163.315 42.152 166.675 42.152C170.099 42.152 173.011 42.872 175.411 44.312C177.843 45.752 179.699 47.816 180.979 50.504C182.291 53.16 182.947 56.328 182.947 60.008C182.947 63.688 182.291 66.856 180.979 69.512C179.699 72.168 177.843 74.216 175.411 75.656C173.011 77.064 170.099 77.768 166.675 77.768ZM166.675 72.344C168.755 72.344 170.515 71.864 171.955 70.904C173.427 69.912 174.547 68.504 175.315 66.68C176.115 64.824 176.515 62.6 176.515 60.008C176.515 57.416 176.115 55.192 175.315 53.336C174.547 51.48 173.427 50.056 171.955 49.064C170.515 48.072 168.755 47.576 166.675 47.576C164.659 47.576 162.915 48.072 161.443 49.064C159.971 50.056 158.835 51.48 158.035 53.336C157.267 55.192 156.883 57.416 156.883 60.008C156.883 62.6 157.267 64.824 158.035 66.68C158.835 68.504 159.971 69.912 161.443 70.904C162.915 71.864 164.659 72.344 166.675 72.344ZM184.726 77V42.92H192.022L206.71 68.552V42.92H212.95V77H205.462L190.966 52.088V77H184.726ZM229.386 77.768C226.57 77.768 224.138 77.272 222.09 76.28C220.042 75.288 218.426 73.912 217.242 72.152C216.09 70.36 215.418 68.28 215.226 65.912L221.562 65.528C221.754 67 222.17 68.248 222.81 69.272C223.482 70.296 224.362 71.08 225.45 71.624C226.57 72.136 227.914 72.392 229.482 72.392C230.826 72.392 231.962 72.232 232.89 71.912C233.85 71.56 234.57 71.064 235.05 70.424C235.562 69.752 235.818 68.936 235.818 67.976C235.818 67.112 235.61 66.344 235.194 65.672C234.778 64.968 233.978 64.344 232.794 63.8C231.61 63.224 229.85 62.664 227.514 62.12C224.698 61.48 222.442 60.76 220.746 59.96C219.05 59.128 217.818 58.104 217.05 56.888C216.282 55.64 215.898 54.088 215.898 52.232C215.898 50.248 216.394 48.504 217.386 47C218.378 45.464 219.786 44.28 221.61 43.448C223.434 42.584 225.626 42.152 228.186 42.152C230.906 42.152 233.21 42.648 235.098 43.64C236.986 44.6 238.474 45.928 239.562 47.624C240.65 49.32 241.322 51.272 241.578 53.48L235.29 53.768C235.13 52.52 234.746 51.432 234.138 50.504C233.562 49.576 232.762 48.856 231.738 48.344C230.746 47.8 229.53 47.528 228.09 47.528C226.298 47.528 224.874 47.944 223.818 48.776C222.794 49.576 222.282 50.648 222.282 51.992C222.282 52.92 222.49 53.688 222.906 54.296C223.354 54.904 224.138 55.432 225.258 55.88C226.378 56.296 227.946 56.744 229.962 57.224C233.002 57.864 235.418 58.68 237.21 59.672C239.002 60.664 240.282 61.816 241.05 63.128C241.818 64.44 242.202 65.944 242.202 67.64C242.202 69.72 241.674 71.528 240.618 73.064C239.562 74.568 238.074 75.736 236.154 76.568C234.234 77.368 231.978 77.768 229.386 77.768Z" fill="black"/>
<path d="M260.92 76.384L257.704 67.96H259.48L262.36 75.64H261.4L264.304 67.96H265.96L262.84 76.384H260.92ZM251.392 76.384V67.984H253.432V76.384H251.392ZM248.92 69.784V67.96H255.904V69.784H248.92ZM256.984 76.384V67.96H258.904V76.384H256.984ZM264.856 76.384V67.96H266.776V76.384H264.856Z" fill="black"/>
</g>
<defs>
<clipPath id="clip0_77_184">
<rect width="270" height="80" fill="white"/>
</clipPath>
</defs>
</svg>
